<svg width="63" height="63" fill="none" xmlns="http://www.w3.org/2000/svg"><path d="M31.5 63C48.897 63 63 48.897 63 31.5S48.897 0 31.5 0 0 14.103 0 31.5 14.103 63 31.5 63z" fill="#4169E1"/><path d="M42.335 30.417c-.232 0-.657-.116-.735-.31-.464-1.16-.89-2.322-1.316-3.444.233-.929 2.284-1.2.968-2.709-.58-.658-1.316-1.548-2.012-1.587-.62-.077-1.355.852-2.051 1.355-.697-.31-1.47-.697-2.245-.968-1.393-.503-1.393-.503-1.432-1.973 0-.813-.31-1.238-1.16-1.2-.581.039-1.123 0-1.703 0-.774 0-1.161.349-1.161 1.122v1.51c-1.316.541-2.516 1.045-3.754 1.548-2.167-1.742-2.167-1.742-3.986.232-.503.542-.542 1.045 0 1.548.426.387.851.735 1.2 1.006-.465 1.006-.813 1.741-1.122 2.515-.503 1.355-.465 1.393-1.974 1.393-.774 0-1.161.31-1.161 1.123v1.78c0 .774.387 1.16 1.161 1.083.503-.038 1.006 0 1.432 0 .542 1.316 1.045 2.554 1.625 3.909-.348.31-.774.696-1.2 1.083-.503.465-.464.929 0 1.393.465.503.968.968 1.471 1.47.464.465.967.465 1.393 0 .387-.425.774-.928 1.006-1.237 1.47.619 2.67 1.122 3.947 1.625v1.47c-.038.852.387 1.2 1.2 1.161h.697c2.05 0 2.05 0 2.128-2.05 0-.272.232-.697.426-.775a84.796 84.796 0 013.328-1.315c1.973 1.702 1.973 1.702 2.786.928 1.819-1.78 1.819-1.78.077-3.908.349-.774.697-1.47.968-2.167.58-1.47.541-1.47 2.167-1.548.696-.039 1.045-.348 1.045-1.045v-.813c.038-1.973.31-2.283-2.013-2.205zM31.5 39.162c-3.676-.038-6.733-3.096-6.733-6.733 0-3.676 3.095-6.772 6.772-6.772 3.637 0 6.694 3.096 6.733 6.733 0 3.715-3.096 6.811-6.772 6.772z" fill="#fff"/><path d="M31.461 11.919c.039-.697.078-1.316.116-2.167 1.858 1.277 3.522 2.438 5.38 3.715-1.82 1.277-3.522 2.438-5.38 3.715a85.474 85.474 0 00-.116-2.012c-5.146-.93-12.46 3.56-15.479 9.442-3.328 6.462-2.515 15.982 5.34 21.98l-1.741 2.322c-5.263-2.631-9.287-11.57-8.436-18.768.58-5.147 2.825-9.52 6.695-12.964 3.87-3.483 8.436-5.186 13.621-5.263zm10.294 6.346c.58-.812 1.16-1.586 1.703-2.321 4.876 3.173 9.364 10.37 8.397 19.039-.851 7.894-8.165 17.917-20.278 18.033-.038.58-.077 1.2-.116 2.09-1.857-1.277-3.521-2.4-5.379-3.677 1.82-1.276 3.522-2.438 5.38-3.715.038.813.077 1.394.115 1.974 4.721 1.084 12.229-3.405 15.286-8.978 3.638-6.694 2.786-16.408-5.108-22.445z" fill="#fff"/><path d="M35.795 30.416c-1.818 1.897-3.56 3.677-5.224 5.418a3312.34 3312.34 0 00-3.212-3.096c.465-.464.968-1.006 1.587-1.664.387.542.813 1.122 1.354 1.858 1.393-1.548 2.554-2.864 3.715-4.18.078.078.194.155.271.271.503.503 1.045.968 1.51 1.393z" fill="#fff"/></svg>