<svg width="63" height="63" fill="none" xmlns="http://www.w3.org/2000/svg"><path d="M31.5 63C48.897 63 63 48.897 63 31.5S48.897 0 31.5 0 0 14.103 0 31.5 14.103 63 31.5 63z" fill="#4169E1"/><path d="M17.724 18.536c.077-.039.077-.155.116-.232.154-.464.387-.851.735-1.161.31-.27.658-.426 1.084-.426h4.102c.193 0 .27 0 .232.233-.232 1.586 1.045 3.134 2.631 3.134 1.742.039 3.483 0 5.263 0h2.245c1.74 0 3.018-1.47 2.786-3.173 0-.116-.039-.232.154-.194 1.278.039 2.555-.077 3.832.039.657.039 1.238.31 1.702.774.349.387.542.813.58 1.316V35.64c0 .27-.038.348-.309.31-.735-.078-1.509.038-2.244.231-.271.078-.271 0-.271-.232V23.296c0-.348 0-.348-.348-.348H20.935c-.27 0-.348.038-.348.348v21.98c0 .271.078.349.349.349h12.383c.27 0 .348.077.348.348.039.774.232 1.548.503 2.283.039.077.039.155.078.194-.116.077-.194.038-.31.038H20.316c-1.431 0-2.09-.503-2.515-1.857l-.039-.039c-.038-9.404-.038-18.73-.038-28.056z" fill="#fff"/><path d="M41.678 52.358c-.194-.116-.387-.116-.62-.155-3.676-.812-6.152-4.18-5.766-7.933.31-3.367 3.019-6.114 6.386-6.54 3.715-.464 7.197 1.897 8.087 5.534 1.045 4.257-1.78 8.436-6.153 9.055-.038 0-.116 0-.154.039h-1.78zm6.036-9.558c0-.58-.31-1.006-.812-1.123-.503-.116-.89.04-1.2.426-1.2 1.355-2.36 2.67-3.56 4.025-.155.193-.232.154-.426.038-.58-.464-1.122-.928-1.702-1.393-.542-.425-1.239-.387-1.626.116-.425.503-.31 1.2.194 1.626l2.786 2.205c.503.387 1.16.349 1.587-.116 1.509-1.664 2.98-3.366 4.489-5.03.154-.271.27-.503.27-.774zM30.455 19H26.74c-.774 0-1.432-.541-1.625-1.276a1.664 1.664 0 01.813-1.897c.232-.154.503-.232.812-.232h.852c.541 0 .89-.31.928-.851.078-.967.62-1.664 1.51-1.896a1.97 1.97 0 012.476 1.818c.039.658.349.93 1.006.93.349 0 .736-.04 1.084.038a1.69 1.69 0 011.316 1.819c-.078.89-.774 1.548-1.664 1.548h-3.793zm.852-4.217c0-.465-.387-.852-.813-.852a.859.859 0 00-.852.852c0 .464.349.851.813.851.465-.039.852-.387.852-.851zm-1.084 10.99h7.16c.58 0 .773.193.773.774v.348c-.039.348-.232.58-.62.58H23.104c-.62 0-.813-.193-.813-.774v-.27c0-.426.232-.658.658-.658h7.275zm-.077 6.81h-7.16c-.541 0-.696-.193-.696-.696 0-.89.077-.968.967-.968h14.048c.619 0 .774.155.774.774v.271c0 .426-.194.62-.62.62h-7.313zm-1.355 2.826h5.766c.58 0 .774.193.774.773v.194c0 .542-.193.735-.735.735h-11.57c-.543 0-.697-.193-.736-.735-.039-.697.039-1.006 1.006-1.006 1.78.039 3.638.039 5.495.039zm-.581 6.771h-5.262c-.503 0-.697-.193-.697-.696 0-.929.078-1.006 1.006-1.006h10.1c.62 0 .774.155.774.774v.232c0 .503-.193.697-.696.697H28.21z" fill="#fff"/></svg>