<svg width="63" height="63" fill="none" xmlns="http://www.w3.org/2000/svg"><path d="M31.5 63C48.897 63 63 48.897 63 31.5S48.897 0 31.5 0 0 14.103 0 31.5 14.103 63 31.5 63z" fill="#4169E1"/><path d="M40.594 53.093A12.569 12.569 0 0128.017 40.44c0-6.927 5.65-12.577 12.654-12.577 6.966 0 12.577 5.65 12.577 12.655-.077 6.965-5.727 12.576-12.654 12.576zm-10.1-12.577c0 5.573 4.528 10.1 10.1 10.1s10.061-4.527 10.061-10.1c0-5.533-4.527-10.06-10.1-10.06-5.533 0-10.061 4.488-10.061 10.06z" fill="#fff"/><path d="M40.594 17.84H17.917v25.192h7.7c.233.851.427 1.664.659 2.515h-8.204c-1.664 0-2.709-1.044-2.709-2.708V17.917c0-1.47 1.084-2.554 2.593-2.554H40.4c1.663 0 2.708 1.045 2.708 2.709v7.546c-.851-.077-1.664-.155-2.515-.232V17.84z" fill="#fff"/><path d="M24.225 20.355h15.092v2.477H24.225v-2.477zm10.139 5.07c-1.316.657-2.516 1.431-3.6 2.399a.44.44 0 01-.309.116h-6.191v-2.515h10.1zM24.225 32.97v-2.515h4.024c-.464.813-.89 1.587-1.315 2.36-.039.078-.155.117-.233.117-.812.038-1.625.038-2.476.038zm-5.031-10.1v-2.476h2.477v2.477h-2.477zm0 2.555h2.477V27.9h-2.477v-2.476zm-.039 7.507v-2.477h2.477v2.477h-2.477zm2.515 5.03h-2.476v-2.476h2.477v2.477zm3.832 0h-1.277v-2.476h1.703c-.155.813-.271 1.625-.426 2.477zm16.33 2.555v-6.27c0-.657.465-1.2 1.123-1.276a1.277 1.277 0 011.393.967c.038.155.038.31.038.464v7.276c0 .89-.503 1.393-1.393 1.393H36.88c-.774 0-1.316-.542-1.316-1.277 0-.697.542-1.239 1.316-1.239h4.373c.155-.038.348-.038.58-.038z" fill="#fff"/></svg>