<svg width="63" height="63" viewBox="0 0 63 63" fill="none" xmlns="http://www.w3.org/2000/svg">
<path d="M31.5 63C48.897 63 63 48.897 63 31.5C63 14.103 48.897 0 31.5 0C14.103 0 0 14.103 0 31.5C0 48.897 14.103 63 31.5 63Z" fill="#4169E1"/>
<path d="M22.9864 29.5652C21.9803 28.5204 20.9742 27.5142 19.9293 26.5081C19.6971 26.1985 19.4262 25.9276 19.1941 25.618C18.3427 24.3023 17.8783 22.8705 17.8783 21.2839C17.917 17.1819 20.9742 13.4282 25.0374 12.693C28.288 12.0738 31.0356 13.1186 33.3188 15.4018C37.6142 19.6586 41.9097 23.954 46.2051 28.2495C46.3212 28.3656 46.4373 28.4817 46.5534 28.5591C46.7469 28.7913 46.9791 29.0234 47.2113 29.2169C47.753 29.7587 48.2948 30.3392 48.8753 30.8809C49.6492 31.6162 50.3071 32.4288 50.8489 33.3189C51.0036 33.5898 51.1197 33.8994 51.2745 34.1702C51.6615 35.3312 51.9324 36.4921 51.9324 37.7304C51.8937 42.5677 48.4496 46.8631 43.7285 47.908C42.9932 48.0627 42.2192 48.1788 41.4453 48.1788C36.2985 48.1788 31.1517 48.1788 26.0049 48.1788C25.734 48.1788 25.5405 48.1014 25.3857 47.908C20.9355 43.4577 16.4852 39.0075 12.035 34.5572C11.8802 34.4024 11.7254 34.2863 11.6093 34.1315C11.261 33.7833 10.9514 33.3576 10.5258 33.0867C10.5258 32.4288 10.5258 31.8097 10.5258 31.1518C10.6419 31.1518 10.7579 31.1518 10.8353 31.1518C11.0675 31.1518 11.261 31.1518 11.4932 31.1518C12.7315 31.1518 13.9699 31.1518 15.2082 31.1518C15.4017 31.1518 15.5952 31.1518 15.7887 31.1518C17.6848 31.1518 19.581 31.1905 21.4772 31.1518C22.019 31.1518 22.4834 31.1905 22.8317 31.6549C23.0251 31.8871 23.2186 32.1193 23.4895 32.3127C23.5669 32.5062 23.7991 32.5836 23.8765 32.7771C23.7217 32.7771 23.6056 32.7771 23.4895 32.8158C23.3347 32.8158 23.1799 32.8158 22.9864 32.8158C20.5872 32.8158 18.1879 32.8158 15.7887 32.8158C15.5952 32.8158 15.4017 32.8158 15.2082 32.8158C14.3568 32.8158 13.5055 32.8158 12.5767 32.8158C12.6928 32.9319 12.7315 32.9706 12.7702 33.048C17.2205 37.4983 21.632 41.9098 26.0823 46.36C26.2371 46.5148 26.4306 46.5922 26.6627 46.5922C31.5 46.5922 36.3372 46.5922 41.1744 46.5922C41.5227 46.5922 41.871 46.5922 42.2192 46.5148C45.702 46.0892 48.1787 44.2704 49.5718 41.0584C50.3458 39.2783 50.5393 37.4596 49.9201 35.5634C49.8814 35.3312 49.804 35.099 49.6879 34.9055C49.1849 33.6285 48.4109 32.5836 47.2887 31.8097C47.1339 31.6549 46.9404 31.5001 46.7082 31.4227C45.7794 30.8422 44.812 30.4939 43.7285 30.4553C42.2966 30.2618 40.9809 30.5326 39.7426 31.1905C39.3169 31.3453 38.9299 31.6162 38.5817 31.8871C36.4146 33.6672 35.3697 35.9503 35.8341 38.7366C36.3759 41.8324 39.2782 43.7673 42.374 43.2642C45.3151 42.7998 47.4821 39.8201 46.9791 36.9565C46.7082 35.4473 45.8181 34.4024 44.3476 33.8994C42.9158 33.3963 41.6001 33.6285 40.4005 34.6346C40.0135 34.9055 39.7039 35.2538 39.5104 35.6795C39.1621 36.1825 39.046 36.7243 38.9686 37.3048C38.7751 38.6979 39.7426 39.9362 41.1357 40.1297C42.4127 40.2845 43.6124 39.317 43.8059 37.9626C43.8833 37.4209 43.5737 36.9952 43.1093 36.9178C42.6449 36.8404 42.2579 37.1887 42.2192 37.7304C42.1419 38.2722 41.8323 38.5431 41.3292 38.5044C40.8648 38.4657 40.5939 38.1174 40.5939 37.6143C40.5939 36.4147 41.6388 35.3312 42.8384 35.2925C44.1928 35.2151 45.3151 36.1825 45.4312 37.4596C45.6634 40.0136 43.2254 42.2194 40.71 41.755C38.2721 41.2906 36.879 39.0462 37.4594 36.5695C37.8077 35.0216 38.6978 33.822 39.9748 32.9319C40.1296 32.8545 40.2844 32.7771 40.4005 32.6997C41.1744 32.3514 41.9484 32.1193 42.7997 32.1193C44.1928 32.0806 45.4312 32.5062 46.5534 33.3576C46.7856 33.5511 46.9791 33.7446 47.2113 33.9381C47.5208 34.3637 47.7917 34.7894 48.1013 35.2151C48.1787 35.4086 48.2561 35.6021 48.3335 35.7569C48.6431 36.763 48.7592 37.7691 48.6044 38.814C47.8691 43.806 42.374 46.5922 37.9238 44.193C37.0337 43.7286 36.3372 43.032 35.6406 42.2968C33.0479 39.6653 30.4164 37.0726 27.785 34.4798C27.7076 34.4024 27.6302 34.325 27.5528 34.2863C27.4367 34.1702 27.2819 34.0154 27.1658 33.8994C25.9662 32.661 24.7665 31.4614 23.5282 30.2618C23.3347 29.8748 23.1799 29.72 22.9864 29.5652ZM40.4005 29.0621C41.7162 28.7139 43.0319 28.5978 44.3089 28.7912C43.4576 27.9012 42.6062 27.0112 41.7549 26.1211C41.6388 25.9276 41.4453 25.7728 41.2518 25.618C41.2131 25.5793 41.1744 25.5406 41.1744 25.5019C38.156 22.4835 35.0989 19.4264 32.0417 16.408C30.6486 15.0148 28.9459 14.2022 26.9723 14.1248C23.8765 14.0087 21.0516 15.9049 19.968 18.8459C19.1554 21.013 19.2715 23.1027 20.7807 24.9989C21.4385 25.8115 22.2125 26.5081 22.9864 27.2046C23.1412 27.3594 23.296 27.5142 23.4508 27.669C24.6505 28.9073 25.8501 30.107 27.0884 31.3066C27.2819 31.5001 27.4754 31.6936 27.6689 31.8871C28.7911 33.048 29.9134 34.1702 31.0743 35.2925C31.2291 35.4473 31.3452 35.5634 31.5 35.7182C32.3513 36.5695 33.2414 37.3822 34.0927 38.2335C34.0927 37.5369 34.0927 36.8404 34.2088 36.1051C34.441 34.8281 34.9441 33.6285 35.6406 32.5449C35.7954 32.3514 35.9502 32.1193 36.1437 31.9258C37.1885 30.7648 38.3882 29.8748 39.8587 29.2943C40.0135 29.1782 40.207 29.1008 40.4005 29.0621Z" fill="white"/>
</svg>
