<svg width="131" height="131" fill="none" xmlns="http://www.w3.org/2000/svg"><g clip-path="url(#clip0)" fill="#4169E1"><path d="M54.158 80.903c3.483-3.337 5.658-8.029 5.658-13.222V57.673a12.321 12.321 0 002.525-7.483V39.726a2.559 2.559 0 00-2.559-2.559H38.697c-8.557 0-15.518 6.961-15.518 15.518v14.996c0 5.193 2.175 9.885 5.658 13.222-14.263.506-25.711 12.265-25.711 26.65v20.888A2.558 2.558 0 005.684 131H77.31a2.558 2.558 0 002.559-2.559v-20.888c0-14.385-11.448-26.144-25.711-26.65zM38.696 42.284h18.528v7.906c0 4.009-3.26 7.27-7.269 7.27h-21.66v-4.774c0-5.736 4.666-10.402 10.401-10.402zM28.295 67.681v-5.105h21.66c1.68 0 3.282-.337 4.744-.946v6.051c0 7.28-5.922 13.203-13.202 13.203S28.295 74.96 28.295 67.68zm23.58 18.32l-10.003 16.953L31.87 86.001h20.005zm22.877 39.882h-5.759v-17.894a2.558 2.558 0 00-5.117 0v17.894H19.868v-17.894a2.558 2.558 0 00-5.117 0v17.894H8.242v-18.33c0-10.63 7.738-19.481 17.875-21.232L39.67 109.29a2.559 2.559 0 004.407 0l13.48-22.845c9.803 2.02 17.196 10.717 17.196 21.109v18.33z"/><path d="M115.082 0h-14.469a2.558 2.558 0 000 5.117h14.469c4.232 0 7.676 3.444 7.676 7.676v34.278c0 4.233-3.444 7.676-7.676 7.676h-9.327a2.56 2.56 0 00-1.809.749l-12.087 12.08v-10.27a2.559 2.559 0 00-2.558-2.56H67.492a2.559 2.559 0 100 5.118h19.25V73.75a2.558 2.558 0 004.368 1.81l15.704-15.697h8.268c7.054 0 12.793-5.74 12.793-12.793V12.793C127.875 5.739 122.136 0 115.082 0zM93.096.75A2.578 2.578 0 0091.287 0c-.673 0-1.333.274-1.809.75a2.578 2.578 0 00-.75 1.809c0 .672.274 1.333.75 1.809.476.475 1.136.75 1.81.75.672 0 1.332-.275 1.808-.75a2.58 2.58 0 00.75-1.81c0-.672-.274-1.332-.75-1.808zM81.935 0H67.492C60.438 0 54.7 5.739 54.7 12.793v14.194a2.559 2.559 0 105.117 0V12.793c0-4.232 3.444-7.676 7.676-7.676h14.443a2.559 2.559 0 100-5.117zM57.863 109.274h-3.582a2.559 2.559 0 000 5.117h3.582a2.558 2.558 0 100-5.117zM37.25 66.925a2.574 2.574 0 00-1.81-.75c-.672 0-1.332.274-1.808.75a2.578 2.578 0 00-.75 1.81c0 .672.274 1.332.75 1.808s1.136.75 1.809.75a2.57 2.57 0 001.808-.75c.479-.476.75-1.136.75-1.809s-.271-1.333-.75-1.809zm12.112 0a2.578 2.578 0 00-1.809-.75 2.562 2.562 0 00-2.559 2.559c0 .673.272 1.333.75 1.81.476.475 1.136.749 1.809.749s1.333-.274 1.809-.75.75-1.136.75-1.809-.274-1.333-.75-1.809z"/><path d="M100.734 22.898c-.323-4.683-4.098-8.458-8.781-8.781a9.391 9.391 0 00-7.127 2.523 9.504 9.504 0 00-3.009 6.924 2.559 2.559 0 105.118 0c0-1.22.49-2.35 1.383-3.183a4.355 4.355 0 017.311 2.87 4.332 4.332 0 01-3.385 4.56 4.464 4.464 0 00-3.516 4.376v5.136a2.559 2.559 0 105.118 0v-4.639c4.328-1.204 7.201-5.241 6.888-9.786zm-7.638 21.069a2.575 2.575 0 00-1.809-.747 2.57 2.57 0 00-1.809.747 2.584 2.584 0 00-.75 1.811c0 .673.274 1.333.75 1.81a2.582 2.582 0 001.81.749c.672 0 1.332-.274 1.808-.75s.75-1.136.75-1.809c0-.675-.274-1.333-.75-1.811z"/></g><defs><clipPath id="clip0"><path fill="#fff" d="M0 0h131v131H0z"/></clipPath></defs></svg>