<svg width="131" height="131" fill="none" xmlns="http://www.w3.org/2000/svg"><g clip-path="url(#clip0)" fill="#4169E1"><path d="M106.349 39.867V16.841a7.044 7.044 0 00-7.036-7.036H34.818a1.919 1.919 0 100 3.838h64.495a3.202 3.202 0 013.198 3.198v23.026a3.202 3.202 0 01-3.198 3.198H75.557a1.919 1.919 0 100 3.838h23.756a7.044 7.044 0 007.036-7.036zM25.902 9.805h-8.46a7.044 7.044 0 00-7.036 7.036v23.026a7.044 7.044 0 007.036 7.037H66.62a1.919 1.919 0 100-3.838H17.442a3.202 3.202 0 01-3.198-3.199V16.841a3.201 3.201 0 013.198-3.198h8.46a1.919 1.919 0 000-3.838zm47.187 54.368a5.764 5.764 0 00-5.757-5.757H49.423a5.764 5.764 0 00-5.757 5.757v17.909a5.764 5.764 0 005.757 5.757h17.909a5.764 5.764 0 005.757-5.757v-17.91zm-3.838 17.909a1.92 1.92 0 01-1.92 1.919H49.424a1.921 1.921 0 01-1.919-1.92V64.174c0-1.058.861-1.92 1.92-1.92h17.908c1.058 0 1.919.862 1.919 1.92v17.909zm-1.919 9.638H49.423a5.764 5.764 0 00-5.757 5.758v17.908a5.763 5.763 0 005.757 5.757h17.909a5.763 5.763 0 005.757-5.757V97.478a5.764 5.764 0 00-5.757-5.757zm1.919 23.666a1.92 1.92 0 01-1.92 1.919H49.424a1.92 1.92 0 01-1.919-1.919V97.478c0-1.058.861-1.92 1.92-1.92h17.908c1.058 0 1.919.862 1.919 1.92v17.908z"/><path d="M64.852 66.653a1.919 1.919 0 00-2.714 0l-3.76 3.76-3.76-3.76a1.92 1.92 0 00-2.714 2.714l3.76 3.76-3.76 3.76c-.75.75-.75 1.965 0 2.714.6.553 1.717.87 2.714 0l3.76-3.76 3.76 3.76c.6.553 1.717.87 2.714 0 .75-.75.75-1.965 0-2.714l-3.76-3.76 3.76-3.76c.75-.75.75-1.964 0-2.714zm.255 33.05a1.919 1.919 0 00-2.714 0l-10.745 10.745a1.92 1.92 0 102.714 2.714l10.746-10.746a1.919 1.919 0 000-2.713zM10.406 82.082a5.764 5.764 0 005.757 5.757h17.909a5.764 5.764 0 005.757-5.757v-17.91a5.764 5.764 0 00-5.757-5.756H16.163a5.764 5.764 0 00-5.757 5.757v17.909zm3.838-17.91c0-1.057.861-1.918 1.92-1.918h17.908a1.92 1.92 0 011.919 1.919v17.909a1.92 1.92 0 01-1.92 1.919H16.164a1.921 1.921 0 01-1.919-1.92V64.174zm-3.838 51.214a5.763 5.763 0 005.757 5.757h17.909a5.763 5.763 0 005.757-5.757V97.478a5.764 5.764 0 00-5.757-5.757H16.163a5.764 5.764 0 00-5.757 5.757v17.908zm3.838-17.908c0-1.058.861-1.92 1.92-1.92h17.908c1.058 0 1.919.862 1.919 1.92v17.908a1.92 1.92 0 01-1.92 1.919H16.164a1.92 1.92 0 01-1.919-1.919V97.478z"/><path d="M20 75.046h3.198v3.198a1.919 1.919 0 103.838 0v-3.198h3.199a1.919 1.919 0 100-3.838h-3.199V68.01a1.919 1.919 0 10-3.838 0v3.198h-3.197a1.919 1.919 0 100 3.838zm0 33.305h10.235a1.919 1.919 0 100-3.838H20a1.919 1.919 0 100 3.838zM18.721 50.74a1.919 1.919 0 100 3.839h12.793a1.919 1.919 0 100-3.838H18.72zm46.053 3.839a1.919 1.919 0 100-3.838H51.982a1.919 1.919 0 100 3.838h12.792zm20.467-3.839a1.919 1.919 0 100 3.839h12.793a1.919 1.919 0 100-3.838H85.24zm5.22-17.63c-1.269.008-1.564-.038-2.489-.642a1.919 1.919 0 10-2.1 3.212c1.041.681 1.86 1.01 2.768 1.158v.47a1.919 1.919 0 103.838 0v-.733c1.83-.7 3.22-2.32 3.56-4.351.431-2.562-.955-4.875-3.45-5.757-.47-.166-.893-.292-1.268-.404-1.009-.3-1.375-.425-1.71-.823-.078-.094-.172-.394-.09-.8.044-.213.2-.737.72-1.002.746-.382 1.628.316 1.726.397a1.92 1.92 0 002.445-2.958 6.334 6.334 0 00-1.933-1.09V19.4a1.919 1.919 0 10-3.838 0v.554c-1.24.559-2.525 1.99-2.88 3.724-.302 1.484.038 2.99.91 4.029 1.091 1.302 2.344 1.675 3.555 2.036.347.103.705.21 1.085.344.933.33 1.028.999.943 1.502-.094.561-.578 1.515-1.792 1.523zm-67.263 4.199c0 1.06.86 1.919 1.92 1.919h55.654a1.919 1.919 0 100-3.838H25.117a1.92 1.92 0 00-1.919 1.919z"/><path d="M130.396 100.097a1.92 1.92 0 00-3.795.574 23.036 23.036 0 01-7.045 20.283 22.981 22.981 0 01-15.742 6.203c-13.355.059-23.535-11.33-23.029-23.776a22.872 22.872 0 017.293-16.047c9.281-8.676 23.894-8.19 32.572 1.08a23.065 23.065 0 013.572 5.01 1.919 1.919 0 103.395-1.79 26.864 26.864 0 00-4.165-5.843 26.75 26.75 0 00-6.997-5.36V14.71c0-8.11-6.6-14.71-14.712-14.71H15.012C6.9 0 .3 6.6.3 14.711V73.62a1.919 1.919 0 103.838 0V14.71c0-5.995 4.878-10.873 10.874-10.873h86.731c5.996 0 10.874 4.878 10.874 10.873v64.054a27.022 27.022 0 00-6.268-1.35V64.218a5.764 5.764 0 00-5.757-5.757H82.683a5.763 5.763 0 00-5.757 5.757l.008 39.888c-.037 6.642 2.558 13.434 7.248 18.391a26.817 26.817 0 005.766 4.663l-74.936-.004c-5.996 0-10.874-4.878-10.874-10.874V82.584a1.919 1.919 0 10-3.838 0v33.698c0 8.112 6.6 14.712 14.712 14.712 1.1-.007 87.741.018 88.804-.002 6.583 0 13.183-2.396 18.36-7.234a26.87 26.87 0 008.22-23.661zM82.683 62.299h17.909a1.92 1.92 0 011.919 1.919v13.11a26.782 26.782 0 00-17.054 7.201 26.999 26.999 0 00-4.687 5.775l-.006-26.087c0-1.057.861-1.918 1.919-1.918z"/><path d="M105.893 102.259c-.483-.171-.919-.3-1.303-.415-1.053-.313-1.435-.442-1.789-.865-.088-.104-.193-.432-.104-.869.046-.227.212-.784.769-1.07.803-.41 1.739.331 1.842.417a1.92 1.92 0 002.443-2.96 6.46 6.46 0 00-2.01-1.123v-.44a1.919 1.919 0 10-3.838 0v.606c-1.28.566-2.6 2.022-2.968 3.807-.306 1.511.04 3.044.926 4.099 1.114 1.327 2.395 1.708 3.634 2.077.358.107.728.217 1.12.355.997.352 1.099 1.067 1.009 1.605-.13.773-.781 1.607-1.903 1.615-1.321.01-1.63-.041-2.595-.672a1.92 1.92 0 00-2.1 3.213c1.082.708 1.93 1.042 2.876 1.19v.533a1.92 1.92 0 003.838 0v-.789c2.049-.762 3.36-2.617 3.668-4.454.439-2.608-.974-4.963-3.515-5.86z"/><path d="M103.817 85.122c-10.51 0-19.06 8.55-19.06 19.061 0 10.51 8.55 19.06 19.06 19.06 10.51 0 19.06-8.55 19.06-19.06 0-10.51-8.55-19.061-19.06-19.061zm0 34.283c-8.394 0-15.223-6.829-15.223-15.222 0-8.394 6.829-15.223 15.223-15.223 8.394 0 15.222 6.829 15.222 15.223.001 8.393-6.828 15.222-15.222 15.222zm-50.865-16.482a1.919 1.919 0 100-3.837 1.919 1.919 0 000 3.837zm10.854 10.854a1.919 1.919 0 100-3.838 1.919 1.919 0 000 3.838z"/></g><defs><clipPath id="clip0"><path fill="#fff" d="M0 0h131v131H0z"/></clipPath></defs></svg>