<svg width="150" height="150" fill="none" xmlns="http://www.w3.org/2000/svg"><g clip-path="url(#clip0)" fill="#4169E1"><path d="M149.389 63.972L124.283 31.36a2.941 2.941 0 00-3.909-.687l-16.21 10.31h-21.14c-.274 0-.546.058-.81.134l-16.391 4.719-17.008-4.652-16.527-10.51a2.94 2.94 0 00-3.866.634L.652 65.703a2.94 2.94 0 00.371 4.076l14.555 12.526L28.636 99.9c-3.82 4.069-3.745 10.485.228 14.46a10.358 10.358 0 006.305 2.986c-.08.522-.121 1.051-.121 1.589 0 2.777 1.081 5.387 3.044 7.35a10.33 10.33 0 007.35 3.045c.038 0 .075-.002.111-.004 0 .071-.004.141-.004.212a10.33 10.33 0 003.044 7.351 10.334 10.334 0 007.35 3.044c.549 0 1.091-.045 1.623-.127a10.34 10.34 0 002.99 6.328 10.357 10.357 0 007.349 3.04 10.36 10.36 0 007.35-3.04l1.59-1.589.667.538a10.361 10.361 0 007.228 2.919 10.36 10.36 0 007.35-3.039 10.365 10.365 0 003.038-7.513 10.375 10.375 0 0010.551-10.546 10.34 10.34 0 007.512-3.043 10.367 10.367 0 003.039-7.513 10.368 10.368 0 007.513-3.039c3.529-3.529 3.983-8.984 1.366-13.012l9.534-19.967 14.334-12.335a2.942 2.942 0 00.412-4.023zM31.348 37.046l11.883 7.556-25.85 31.494L7.02 67.18l24.327-30.134zm1.676 66.774l3.587-3.587a4.503 4.503 0 012.79-1.302l.077-.004c.128-.01.256-.017.385-.016 1.23.017 2.371.52 3.218 1.414 1.662 1.756 1.573 4.627-.199 6.398l-3.478 3.478a4.517 4.517 0 01-6.38 0 4.518 4.518 0 010-6.381zm9.228 18.306a4.48 4.48 0 01-1.322-3.19 4.48 4.48 0 011.322-3.19l6.954-6.955c1.332-1.332 3.427-1.697 5.13-.886 1.755.837 2.743 2.742 2.485 4.659a4.76 4.76 0 01-1.343 2.718l-6.845 6.844a4.485 4.485 0 01-3.19 1.322 4.485 4.485 0 01-3.191-1.322zm10.5 10.603a4.48 4.48 0 01-1.321-3.19 4.48 4.48 0 011.322-3.19l6.953-6.955c1.425-1.424 3.71-1.73 5.454-.715 1.593.927 2.428 2.746 2.154 4.559a4.766 4.766 0 01-1.336 2.647l-6.844 6.844a4.484 4.484 0 01-3.19 1.321 4.484 4.484 0 01-3.191-1.321zm11.962 9.246a4.517 4.517 0 010-6.38l3.587-3.586a4.645 4.645 0 01.346-.314 4.489 4.489 0 012-.929l.052-.007a4.41 4.41 0 01.383-.053c.051-.004.103-.004.155-.008.106-.005.21-.012.316-.011a4.481 4.481 0 013.509 1.756c1.353 1.768 1.17 4.394-.508 6.074l-3.46 3.46a4.517 4.517 0 01-6.38-.002zm54.869-32.825a4.515 4.515 0 01-6.38 0 2.598 2.598 0 00-.201-.179L94.09 89.859a2.941 2.941 0 00-4.182 4.138l19.118 19.317.007.007a4.52 4.52 0 010 6.381 4.487 4.487 0 01-3.191 1.322 4.483 4.483 0 01-3.191-1.322L89.863 106.78a2.94 2.94 0 10-4.181 4.139l12.593 12.723c.064.08.133.157.206.23a4.518 4.518 0 010 6.381 4.52 4.52 0 01-6.382-.001l-6.98-7.053a2.941 2.941 0 10-4.182 4.137l6.785 6.855c.065.08.133.158.208.231a4.519 4.519 0 010 6.382 4.516 4.516 0 01-6.38 0c-.203-.203-.441-.359-.668-.533-.192-.146-.242-.248-.146-.481.097-.237.242-.451.34-.689.107-.266.194-.539.279-.814.45-1.453.584-3.017.381-4.525a10.35 10.35 0 00-4.393-7.158 10.309 10.309 0 00-4.375-1.696c.757-3.342-.153-6.965-2.52-9.466a10.32 10.32 0 00-7.718-3.251c.063-2.701-.92-5.384-2.781-7.352a10.324 10.324 0 00-7.41-3.251 10.59 10.59 0 00-2.509.267 10.314 10.314 0 00-3.438-6.304 10.31 10.31 0 00-6.648-2.522 10.418 10.418 0 00-7.1 2.671l-11.37-15.32 27.2-33.138 8.669 2.372-11.322 19.978a10.325 10.325 0 00-.974 7.895 10.324 10.324 0 005.387 6.535c.406.202.824.376 1.248.522 1.971.684 4.101.758 6.155.19a10.329 10.329 0 006.272-4.893l7.357-12.983 13.137.931 34.981 34.98a4.519 4.519 0 01-.001 6.381zm1.219-13.482L87.986 62.853A2.943 2.943 0 0086.115 62L70.03 60.86a2.99 2.99 0 00-2.767 1.484L58.99 76.94a4.483 4.483 0 01-2.723 2.124 4.484 4.484 0 01-3.427-.423 4.483 4.483 0 01-2.124-2.723 4.478 4.478 0 01.423-3.427l11.043-19.489 4.474-1.287.088-.03 16.7-4.822h20.179l25.191 32.023-8.013 16.781zm11.866-21.398l-23.296-29.63 11.89-7.561 21.767 28.275-10.361 8.916z"/><path d="M90.874 35.458c.753 0 1.506-.287 2.08-.861l20.092-20.092a2.941 2.941 0 10-4.16-4.16L88.795 30.437a2.941 2.941 0 002.08 5.021zm-33.829-.861a2.933 2.933 0 002.08.861 2.941 2.941 0 002.08-5.022l-20.09-20.09a2.941 2.941 0 10-4.16 4.16l20.09 20.09zM75 35.458a2.942 2.942 0 002.941-2.94V15.89a2.942 2.942 0 00-5.882 0v16.627A2.942 2.942 0 0075 35.458zM72.285 5.23a2.958 2.958 0 002.86 1.81 2.97 2.97 0 002.653-2.037 2.963 2.963 0 00-1.008-3.231 2.973 2.973 0 00-3.422-.113c-1.16.767-1.61 2.294-1.083 3.57z"/></g><defs><clipPath id="clip0"><path fill="#fff" d="M0 0h150v150H0z"/></clipPath></defs></svg>