<svg width="150" height="128" fill="none" xmlns="http://www.w3.org/2000/svg"><path d="M45.14 60.78a409.201 409.201 0 00-11.075-10.9c-.84-1.104-1.822-2.07-2.663-3.173-3.084-4.691-4.767-9.796-4.767-15.453C26.776 16.63 37.85 3.248 52.57.627c11.776-2.207 21.73 1.518 30 9.658 15.56 15.176 31.122 30.49 46.682 45.804.421.414.841.828 1.262 1.104a18.996 18.996 0 002.383 2.346c1.963 1.931 3.925 4 6.028 5.932a42.407 42.407 0 017.15 8.692c.561.966.981 2.07 1.542 3.035 1.402 4.14 2.383 8.278 2.383 12.693-.14 17.246-12.617 32.56-29.72 36.285-2.663.552-5.467.966-8.271.966H56.075c-.982 0-1.683-.276-2.243-.966L5.467 78.577c-.56-.552-1.121-.966-1.542-1.518C2.664 75.817 1.542 74.3 0 73.334v-6.898h19.065c6.87 0 13.739.138 20.608 0 1.962 0 3.645.138 4.906 1.793.701.828 1.402 1.656 2.384 2.346.28.69 1.121.965 1.401 1.655-.56 0-.98 0-1.401.138H7.43c.42.414.56.552.7.828l48.225 47.46c.56.552 1.262.828 2.103.828h52.57c1.262 0 2.523 0 3.785-.276 12.617-1.518 21.589-8.002 26.636-19.453 2.803-6.346 3.504-12.83 1.261-19.591-.14-.828-.42-1.656-.841-2.346-1.822-4.552-4.626-8.278-8.691-11.037-.561-.552-1.262-1.104-2.103-1.38-3.365-2.069-6.869-3.31-10.795-3.449-5.187-.69-9.953.276-14.439 2.622-1.542.552-2.944 1.517-4.205 2.483-7.851 6.346-11.636 14.486-9.954 24.42 1.963 11.037 12.477 17.936 23.692 16.142 10.654-1.656 18.505-12.279 16.682-22.488-.981-5.381-4.206-9.106-9.533-10.9-5.187-1.793-9.953-.965-14.299 2.622-1.402.965-2.523 2.207-3.224 3.725-1.262 1.793-1.682 3.725-1.963 5.794-.701 4.967 2.804 9.382 7.851 10.072 4.626.552 8.972-2.898 9.673-7.726.28-1.932-.841-3.45-2.524-3.725-1.682-.276-3.084.965-3.224 2.897-.28 1.931-1.402 2.897-3.224 2.76-1.682-.139-2.664-1.38-2.664-3.174 0-4.277 3.785-8.14 8.131-8.278 4.907-.276 8.972 3.173 9.393 7.726.841 9.106-7.991 16.97-17.103 15.314-8.832-1.655-13.879-9.657-11.776-18.487 1.262-5.519 4.486-9.796 9.112-12.969.561-.276 1.122-.552 1.542-.828 2.804-1.241 5.608-2.07 8.692-2.07 5.047-.137 9.533 1.38 13.598 4.416.841.69 1.542 1.38 2.383 2.07 1.122 1.517 2.103 3.034 3.225 4.552.28.69.56 1.38.841 1.932 1.121 3.587 1.542 7.174.981 10.899-2.664 17.798-22.57 27.731-38.692 19.177-3.224-1.655-5.747-4.139-8.27-6.76-9.393-9.382-18.926-18.626-28.459-27.87-.28-.275-.56-.551-.84-.689l-1.403-1.38a579.327 579.327 0 00-13.177-12.968c-.701-1.38-1.262-1.932-1.963-2.484zm63.084-1.794c4.767-1.242 9.533-1.656 14.159-.966l-9.252-9.52c-.421-.69-1.122-1.242-1.823-1.793-.14-.138-.28-.276-.28-.414-10.935-10.761-22.01-21.66-33.084-32.422-5.047-4.967-11.215-7.864-18.365-8.14-11.215-.414-21.448 6.346-25.373 16.832-2.944 7.726-2.524 15.176 2.944 21.936 2.383 2.898 5.186 5.38 7.99 7.864l1.682 1.656A579.327 579.327 0 0060 66.988l2.103 2.07a507.74 507.74 0 0012.336 12.14l1.542 1.518c3.084 3.035 6.309 5.932 9.393 8.968 0-2.484 0-4.967.42-7.589.841-4.552 2.664-8.83 5.187-12.692.561-.69 1.122-1.518 1.823-2.208 3.785-4.139 8.131-7.312 13.458-9.382.56-.413 1.261-.69 1.962-.827z" fill="#4169E1"/></svg>