<svg width="8" height="18" fill="none" xmlns="http://www.w3.org/2000/svg"><g clip-path="url(#clip0)"><path d="M8 7.282c-.002.003-.003.01-.005.01H.045c-.015 0-.03-.006-.045-.01.039-.065.08-.13.118-.197l.641-1.123L1.972 3.84l1.119-1.957L4 .292h.01c.007.019.012.038.022.055l.25.436.96 1.682.919 1.606.91 1.594.706 1.236c.073.128.149.254.223.381z" fill="#4169E1"/></g><g clip-path="url(#clip1)"><path d="M0 10.303c.002-.004.003-.01.005-.01.013-.002.027 0 .04 0h7.91c.015 0 .03.006.045.01-.039.065-.08.13-.118.197l-.641 1.123-1.213 2.123-1.119 1.957L4 17.293h-.01c-.007-.019-.012-.038-.022-.055l-.25-.436-.96-1.682-.919-1.606-.91-1.594-.706-1.236C.15 10.556.074 10.43 0 10.303z" fill="#4169E1"/></g><defs><clipPath id="clip0"><path fill="#fff" transform="translate(0 .292)" d="M0 0h8v7H0z"/></clipPath><clipPath id="clip1"><path fill="#fff" transform="rotate(-180 4 8.646)" d="M0 0h8v7H0z"/></clipPath></defs></svg>