<svg width="139" height="58" fill="none" xmlns="http://www.w3.org/2000/svg"><path d="M12.772 12.736c-.422 0-.763.374-.763.838 0 1.822-1.35 3.316-3.02 3.316-.422 0-.762.374-.762.838v23.397c0 .464.34.826.763.826 1.659 0 3.02 1.495 3.02 3.317 0 .464.34.826.762.826h2.989l1.515-1.664h-3.813c-.32-2.083-1.825-3.724-3.71-4.075V18.487c1.896-.351 3.39-2.004 3.71-4.075h31.134l1.525-1.676h-33.35z" fill="#1F2030"/><path d="M22.027 35.273c0-.464-.34-.827-.753-.827h-9.306c-.422 0-.752.374-.752.827 0 .453.34.826.752.826h9.306c.423.023.753-.362.753-.826zm-.289 4.256l-1.515 1.664h-5.617c-.422 0-.762-.374-.762-.838 0-.464.34-.826.762-.826h7.132zm-9.77-9.271h5.246c.422 0 .752-.373.752-.826 0-.453-.34-.826-.752-.826h-5.246c-.423 0-.752.373-.752.826-.01.453.34.826.752.826zm0-5.863h9.306c.423 0 .753-.373.753-.826 0-.453-.34-.827-.753-.827h-9.306c-.423 0-.752.374-.752.827-.01.453.34.826.752.826zm2.628-5.071h7.967c.422 0 .752-.373.752-.826 0-.453-.34-.827-.752-.827h-7.967c-.422 0-.752.374-.752.827-.01.453.33.826.752.826z" fill="#1F2030"/><path d="M.992 8.424c-.422 0-.752.373-.752.837 0 .464.34.827.752.827H4.29v1.21H2.394c-.423 0-.763.374-.763.838 0 .464.34.827.763.827H4.29v1.2H.992c-.422 0-.752.373-.752.837 0 .464.34.826.752.826H4.29v1.212H2.394c-.423 0-.763.373-.763.826 0 .453.34.826.763.826H4.29v1.211H.992c-.422 0-.752.374-.752.827 0 .464.34.826.752.826H4.29v1.211H2.394c-.423 0-.763.374-.763.826 0 .464.34.827.763.827H4.29v1.21H.992c-.422 0-.752.374-.752.827 0 .464.34.838.752.838H4.29v1.245H2.394c-.423 0-.763.373-.763.826 0 .464.34.838.763.838H4.29v1.211H.992c-.422 0-.752.373-.752.826 0 .464.34.838.752.838H4.29v1.211H2.394c-.423 0-.763.374-.763.826 0 .465.34.838.763.838H4.29v1.211H.992c-.422 0-.752.374-.752.827 0 .464.34.837.752.837H4.29v1.211H2.394c-.423 0-.763.374-.763.827 0 .464.34.837.763.837H4.29v1.211H.992c-.422 0-.752.374-.752.827 0 .464.34.837.752.837H4.29v1.211H2.394c-.423 0-.763.374-.763.838 0 .464.34.826.763.826H4.29v1.212H.992c-.422 0-.752.373-.752.837 0 .464.34.827.752.827h10.924l1.423-1.563H5.815V10.087h42.719l1.515-1.663H.992z" fill="#1F2030"/><path d="M55.604 1.926a.99.99 0 01-.258.68L50.05 8.424l-1.505 1.664-3.947 4.335-2.948 3.237-1.515 1.664-5.06 5.558-1.082 1.188-7.348 8.07-1.062 1.178-3.834 4.21-1.515 1.665-2.947 3.237-1.515 1.664-2.422 2.66-1.422 1.562-6.637 7.267a.823.823 0 01-1.237 0 1.011 1.011 0 01-.258-.68c0-.237.083-.486.258-.678l6.812-7.482 2.422-2.66 1.515-1.664 2.948-3.237 1.515-1.664 5.07-5.57 1.062-1.165 7.358-8.071 1.082-1.189 3.917-4.3L54.12 1.246a.822.822 0 011.236 0c.165.193.248.442.248.68zm4.967 18.009h-5.885l-.587 1.62h.587c.588 0 1 .124 1.247.373.248.249.371.566.371.962 0 .385-.123.713-.37.95-.248.25-.66.374-1.248.374H51.42c-.587 0-1-.124-1.247-.373-.247-.25-.37-.566-.37-.963 0-.396.133-.724.39-.973.259-.25.691-.362 1.29-.35l3.802-10.415h-1.587c-.588 0-1-.124-1.247-.373-.247-.25-.371-.566-.371-.962 0-.397.124-.725.37-.962.248-.25.66-.374 1.248-.374l5.235.011 4.824 13.074c.566 0 .938.068 1.123.204.36.283.546.656.546 1.132 0 .385-.123.713-.37.95-.248.25-.66.374-1.238.374H60.55c-.587 0-1-.124-1.247-.373-.247-.25-.37-.566-.37-.963 0-.384.123-.713.37-.95.248-.25.66-.374 1.247-.374h.588l-.567-1.619zm-1-2.66l-1.958-5.263-1.958 5.275h3.916v-.012zm11.162 1.551v2.74h2.442c.588 0 1 .124 1.248.373.247.249.37.566.37.962 0 .385-.123.713-.37.95-.248.25-.66.374-1.248.374H67.93c-.588 0-1-.124-1.247-.373-.248-.25-.371-.566-.371-.962 0-.385.123-.713.381-.951.247-.25.67-.374 1.237-.374h.381V11.152h-.381c-.588 0-1-.125-1.247-.374-.248-.249-.371-.566-.371-.962s.123-.725.37-.962c.248-.25.66-.374 1.248-.374l5.575.012c1.639 0 2.938.486 3.896 1.471.958.985 1.433 2.185 1.433 3.588 0 .781-.165 1.517-.485 2.207-.247.521-.65 1.03-1.226 1.54a6.506 6.506 0 01-1.752 1.143c-.598.26-1.381.385-2.36.385h-2.278zm0-2.66h2.247c1.05 0 1.896-.26 2.514-.781.619-.52.928-1.155.928-1.89 0-.623-.248-1.166-.752-1.642-.505-.464-1.217-.701-2.144-.701h-2.793v5.014zm13.449 1.483v3.905h6.184v-1.438c0-.645.113-1.098.34-1.37.227-.27.515-.407.876-.407.35 0 .65.136.866.408.226.271.34.724.34 1.37v4.097H81.379c-.587 0-1-.124-1.247-.373-.247-.25-.371-.566-.371-.963 0-.384.124-.713.381-.95.248-.25.67-.374 1.237-.374h.381V11.14h-.381c-.587 0-1-.124-1.247-.373-.247-.25-.371-.566-.371-.962 0-.397.124-.725.371-.962.247-.25.66-.374 1.247-.374l10.873.011v4.053c0 .633-.114 1.086-.33 1.358a1.07 1.07 0 01-.876.407c-.36 0-.66-.135-.876-.407-.227-.272-.34-.725-.34-1.358V11.14h-5.648v3.849h2.123c0-.69.062-1.143.175-1.336.248-.419.588-.634 1.041-.634.35 0 .64.136.866.408.227.271.34.724.34 1.37v3.067c0 .577-.062.973-.185 1.166-.248.407-.588.611-1.02.611-.454 0-.794-.215-1.041-.634-.114-.204-.176-.645-.176-1.347h-2.123v-.011zm19.664.056h-5.173v3.86h.381c.587 0 1 .125 1.247.374.247.249.371.566.371.962 0 .385-.124.713-.371.95-.247.25-.66.374-1.247.374h-2.968c-.588 0-1-.124-1.247-.373-.248-.25-.371-.566-.371-.962 0-.487.196-.86.577-1.132.185-.136.587-.204 1.206-.193V11.152c-.423-.046-.742-.181-.959-.43a1.303 1.303 0 01-.33-.906c0-.396.124-.725.371-.962.248-.25.66-.374 1.248-.374l2.473.012c.587 0 1 .124 1.247.362.247.237.371.566.371.962s-.124.724-.371.962c-.247.25-.66.374-1.247.374h-.381v3.893h5.173v-3.893h-.381c-.588 0-1-.125-1.247-.374-.247-.249-.371-.566-.371-.962s.124-.725.371-.962c.247-.25.659-.374 1.247-.374l2.473.012c.588 0 1 .124 1.247.362.248.237.371.566.371.962 0 .362-.113.668-.329.905-.217.238-.536.385-.959.43v10.414c.619 0 1.02.068 1.206.193.381.271.577.645.577 1.143 0 .385-.124.713-.371.95-.247.25-.659.374-1.247.374h-2.968c-.588 0-1-.124-1.247-.373-.247-.25-.371-.566-.371-.962 0-.385.124-.713.381-.951.248-.25.67-.374 1.237-.374h.381v-3.86zm16.15 6.52h-8.606l-.072 1.347c-.051.826-.154 1.393-.33 1.675-.175.284-.463.43-.886.43s-.732-.146-.907-.44c-.175-.295-.268-.872-.268-1.733v-3.95c.278.011.485.011.629.011.824 0 1.535-.35 2.123-1.041.587-.702.876-2.049.876-4.041V11.15c-.144.012-.289.012-.433.012-1.123 0-1.68-.453-1.68-1.347 0-.487.134-.827.412-1.03.268-.204.815-.295 1.629-.295h8.028c.783 0 1.309.102 1.598.295.288.204.422.543.422 1.03 0 .894-.587 1.335-1.773 1.335v10.414c.619 0 1.041.08 1.258.238.216.158.361.35.422.577.062.227.093.69.093 1.404v1.732c0 .837-.093 1.415-.268 1.709-.175.305-.484.453-.917.453-.402 0-.691-.136-.866-.408-.175-.272-.299-.815-.371-1.641l-.113-1.404zm-5.009-13.074v5.332c0 2.083-.319 3.758-.958 5.014l4.308.068V11.151h-3.35zm19.159 8.784h-5.885l-.587 1.62h.587c.588 0 1 .124 1.247.373.248.249.371.566.371.962 0 .385-.123.713-.371.95-.247.25-.659.374-1.247.374h-3.267c-.587 0-1-.124-1.247-.373-.247-.25-.371-.566-.371-.963 0-.396.134-.724.392-.973.257-.25.69-.362 1.288-.35l3.803-10.415h-1.587c-.588 0-1-.124-1.247-.373-.248-.25-.371-.566-.371-.962 0-.397.123-.725.371-.962.247-.25.659-.374 1.247-.374l5.235.011 4.823 13.074c.567 0 .938.068 1.124.204.361.283.546.656.546 1.132 0 .385-.124.713-.371.95-.247.25-.66.374-1.237.374h-3.267c-.587 0-.999-.124-1.247-.373-.247-.25-.371-.566-.371-.963 0-.384.124-.713.371-.95.248-.25.66-.374 1.247-.374h.588l-.567-1.619zm-1-2.66l-1.948-5.274-1.958 5.274h3.906zM39.939 37.209c-.083.022-.536.735-1.36 2.139-.588.996-.99 1.641-1.186 1.947l-.144.317c.773.701 1.442 1.664 2 2.886l1.432 3.079h.453c.783 0 1.32.102 1.597.294.279.204.423.544.423 1.03 0 .487-.134.827-.412 1.03-.278.204-.814.306-1.608.306h-.268c-.835 0-1.33-.068-1.494-.204-.155-.136-.413-.566-.753-1.301l-1.432-3.068c-.783-1.653-1.608-2.479-2.484-2.479h-.68v4.392c.113-.011.216-.011.33-.011 1.113 0 1.67.441 1.67 1.335 0 .487-.135.827-.413 1.03-.268.204-.804.306-1.587.306H31.6c-.783 0-1.309-.102-1.587-.294-.278-.204-.423-.544-.423-1.03 0-.487.145-.827.423-1.03.278-.204.814-.306 1.587-.306V37.163a3.216 3.216 0 01-.33.012c-1.123 0-1.68-.453-1.68-1.347 0-.487.134-.827.412-1.03.279-.204.804-.295 1.598-.295h2.422c.783 0 1.309.102 1.587.295.278.203.412.543.412 1.03 0 .486-.134.826-.412 1.03-.278.203-.804.305-1.587.305v3.35h.33c.268 0 .484-.056.66-.18.175-.125.422-.453.741-.985l1.752-2.92c.371-.612.784-1.087 1.258-1.427.463-.34 1.123-.51 1.958-.51.525 0 .907.092 1.123.261.217.17.36.374.412.6.052.227.083.68.083 1.381v.26c0 .838-.083 1.404-.258 1.71-.175.294-.474.453-.907.453-.804-.023-1.216-.668-1.236-1.947zm17.273 5.15c0 2.365-.68 4.335-2.051 5.897-1.371 1.574-2.948 2.355-4.752 2.355-1.617 0-3.07-.657-4.37-1.959-1.607-1.618-2.41-3.712-2.41-6.293s.803-4.686 2.41-6.305c1.3-1.302 2.763-1.958 4.37-1.958 1.794 0 3.38.78 4.752 2.354 1.36 1.573 2.05 3.543 2.05 5.909zm-2.422 0c0-1.619-.444-2.955-1.34-4.019-.887-1.064-1.907-1.596-3.04-1.596-1.124 0-2.134.532-3.03 1.596-.887 1.064-1.34 2.4-1.34 4.007 0 1.608.443 2.944 1.34 4.008.886 1.064 1.896 1.584 3.03 1.584 1.133 0 2.143-.532 3.04-1.584.886-1.03 1.34-2.378 1.34-3.996zm5.194 5.207V37.151h-.382c-.587 0-1-.125-1.247-.374-.247-.249-.37-.566-.37-.962s.123-.724.37-.962c.248-.249.66-.373 1.247-.373h6.081c1.453 0 2.618.44 3.504 1.335.886.883 1.32 1.936 1.32 3.158 0 .578-.104 1.12-.31 1.642a4.315 4.315 0 01-.938 1.414c.763.498 1.34 1.087 1.721 1.755.382.668.577 1.426.577 2.275 0 .68-.134 1.302-.412 1.88-.206.44-.453.791-.752 1.052-.402.362-.897.656-1.474.894-.587.226-1.309.34-2.185.34h-7.111c-.587 0-1-.125-1.247-.374-.247-.249-.371-.566-.371-.962 0-.385.124-.702.381-.95.248-.25.67-.374 1.237-.374h.36zm2.422-6.543h2.659c.948 0 1.741-.26 2.38-.792.423-.351.64-.793.64-1.325 0-.464-.197-.871-.598-1.222-.402-.351-1.041-.52-1.917-.52h-3.154v3.859h-.01zm0 6.542h4.184c.99 0 1.68-.158 2.082-.475.309-.238.463-.589.463-1.041 0-.532-.298-1.064-.906-1.585-.608-.52-1.474-.781-2.608-.781h-3.205v3.883h-.01zm15.654-2.739v2.74h2.443c.588 0 1 .124 1.247.373.248.25.371.566.371.962 0 .385-.123.713-.37.951-.248.249-.66.373-1.248.373h-5.246c-.587 0-1-.124-1.247-.373-.247-.249-.37-.566-.37-.962 0-.385.123-.702.38-.95.248-.25.67-.374 1.237-.374h.382V37.151h-.382c-.587 0-1-.125-1.247-.374-.247-.249-.37-.566-.37-.962s.123-.724.37-.962c.248-.249.66-.373 1.247-.373l5.576.01c1.639 0 2.937.487 3.896 1.472.958.985 1.432 2.185 1.432 3.588 0 .782-.165 1.517-.484 2.208-.248.52-.65 1.03-1.227 1.54a6.504 6.504 0 01-1.752 1.142c-.597.26-1.38.385-2.36.385h-2.277zm0-2.66h2.247c1.052 0 1.897-.26 2.515-.78.618-.522.927-1.155.927-1.891 0-.623-.247-1.166-.752-1.641-.505-.465-1.216-.702-2.144-.702h-2.792v5.014zm22.736.193c0 2.365-.681 4.335-2.051 5.897-1.371 1.574-2.948 2.355-4.751 2.355-1.618 0-3.072-.657-4.37-1.959-1.608-1.618-2.412-3.712-2.412-6.293s.804-4.686 2.412-6.305c1.298-1.302 2.762-1.958 4.37-1.958 1.793 0 3.38.78 4.75 2.354 1.361 1.573 2.052 3.543 2.052 5.909zm-2.422 0c0-1.619-.444-2.955-1.34-4.019-.886-1.064-1.907-1.596-3.04-1.596-1.124 0-2.134.532-3.03 1.596-.887 1.064-1.34 2.4-1.34 4.007 0 1.608.443 2.944 1.34 4.008.886 1.064 1.896 1.584 3.03 1.584 1.133 0 2.143-.532 3.04-1.584.886-1.03 1.34-2.378 1.34-3.996zm5.194 5.207V37.151h-.371c-.588 0-1-.125-1.247-.374-.247-.249-.371-.566-.371-.962s.124-.724.371-.962c.247-.249.659-.373 1.247-.373h6.08c1.454 0 2.618.44 3.505 1.335.886.883 1.319 1.936 1.319 3.158 0 .578-.103 1.12-.309 1.642a4.346 4.346 0 01-.938 1.414c.762.498 1.339 1.087 1.721 1.755.381.668.577 1.426.577 2.275 0 .68-.134 1.302-.412 1.88-.206.44-.454.791-.753 1.052-.402.362-.896.656-1.473.894-.588.226-1.309.34-2.185.34h-7.111c-.588 0-1-.125-1.248-.374-.247-.249-.371-.566-.371-.962 0-.385.124-.702.382-.95.247-.25.67-.374 1.237-.374h.35zm2.422-6.543h2.659c.958 0 1.742-.26 2.381-.792.422-.351.638-.793.638-1.325 0-.464-.195-.871-.608-1.222-.402-.351-1.04-.52-1.917-.52h-3.153v3.859zm0 6.542h4.184c.989 0 1.68-.158 2.082-.475.309-.238.464-.589.464-1.041 0-.532-.299-1.064-.907-1.585-.608-.52-1.474-.781-2.608-.781H106v3.883h-.01z" fill="#1F2030"/></svg>