<svg width="97" height="63" fill="none" xmlns="http://www.w3.org/2000/svg"><path d="M5.221 16.534h-.694c-.143 0-.258.126-.258.283v3.631c0 .158-.114.284-.257.284H2.194c-.143 0-.258-.126-.258-.284V10.403c0-.157.115-.283.258-.283h1.818c.143 0 .257.126.257.283v3.537c0 .157.115.283.258.283h.48c.1 0 .185-.063.228-.157l1.718-3.789a.254.254 0 01.229-.157h2.211c.2 0 .322.236.222.425l-2.347 4.33a.285.285 0 000 .284l2.69 5.148c.101.189-.028.417-.221.417H7.576a.244.244 0 01-.222-.15L5.45 16.676a.252.252 0 00-.229-.142zm7.851.873v3.034c0 .157-.114.283-.258.283h-1.818c-.143 0-.257-.126-.257-.283V10.403c0-.157.114-.283.257-.283h3.6c.738 0 1.389.15 1.961.448a3.175 3.175 0 011.317 1.274c.315.55.465 1.179.465 1.878 0 1.038-.336 1.863-1.009 2.476-.673.621-1.596.928-2.777.928h-1.23c-.136.008-.251.133-.251.283zm0-2.531c0 .157.115.283.258.283h1.266c.451 0 .795-.126 1.03-.37.237-.244.359-.597.359-1.045 0-.495-.122-.889-.365-1.187-.244-.299-.573-.448-.995-.448H13.33c-.143 0-.258.126-.258.283v2.484zm10.256-.15l1.538-4.426a.25.25 0 01.236-.18h1.89c.179 0 .307.204.236.385l-3.099 8.017c-.35.849-.744 1.446-1.174 1.792a2.559 2.559 0 01-1.531.55h-.473l-.121-.007c-.136-.008-.243-.126-.243-.276l-.03-1.407c0-.157.115-.29.266-.282h.193c.35 0 .623-.063.801-.197.18-.134.323-.393.437-.778l.079-.236a.294.294 0 00-.015-.22l-3.249-6.948c-.086-.19.036-.41.23-.41h1.896c.1 0 .186.064.229.158l1.904 4.465zM34.427 12.1h-3.685c-.143 0-.258.127-.258.284v8.072c0 .158-.114.283-.258.283H28.41c-.143 0-.258-.125-.258-.283V10.403c0-.157.114-.283.258-.283h6.011c.143 0 .258.126.258.283v1.415c0 .157-.115.283-.25.283zm9.039 3.545c0 1.038-.171 1.95-.522 2.744-.35.793-.845 1.407-1.489 1.839-.644.432-1.374.644-2.197.644s-1.553-.204-2.19-.62c-.637-.417-1.13-1.007-1.488-1.777-.358-.77-.544-1.659-.558-2.657v-.597c0-1.038.171-1.957.522-2.751.343-.794.844-1.407 1.489-1.84.644-.432 1.38-.644 2.21-.644.817 0 1.547.212 2.19.644.645.425 1.139 1.038 1.497 1.824.358.786.536 1.69.536 2.712v.48zm-2.361-.448c0-1.053-.158-1.855-.48-2.397-.322-.543-.78-.818-1.374-.818-1.166 0-1.782.96-1.846 2.885l-.008.778c0 1.038.158 1.84.473 2.398.315.558.78.84 1.395.84.587 0 1.038-.274 1.36-.825.315-.55.48-1.336.487-2.366v-.495h-.007zm3.564 5.251V10.403c0-.157.114-.283.257-.283h3.214c1.245 0 2.19.252 2.834.747.644.503.973 1.226.973 2.177 0 .55-.115 1.014-.344 1.407a2.023 2.023 0 01-1.016.857c.501.15.888.417 1.16.817.272.401.407.88.407 1.454 0 1.038-.3 1.816-.901 2.343-.601.519-1.489.786-2.663.794h-3.664c-.143.008-.257-.118-.257-.268zm2.326-6.186c0 .158.114.284.257.284h.96c.507-.008.872-.11 1.087-.307.215-.197.322-.495.322-.88 0-.448-.114-.77-.35-.967-.237-.197-.616-.299-1.131-.299h-.888c-.143 0-.258.126-.258.283v1.886zm0 2.233v1.98c0 .158.114.284.257.284h1.267c.422 0 .744-.103.966-.315.222-.212.336-.51.336-.888 0-.88-.4-1.328-1.202-1.336h-1.374c-.136 0-.25.126-.25.275zm14.606-.85c0 1.038-.172 1.95-.522 2.744-.35.793-.845 1.407-1.489 1.839-.644.432-1.374.644-2.197.644s-1.553-.204-2.19-.62c-.637-.417-1.13-1.007-1.488-1.777-.358-.77-.544-1.659-.559-2.657v-.597c0-1.038.172-1.957.523-2.751.343-.794.844-1.407 1.488-1.84.645-.432 1.382-.644 2.212-.644.816 0 1.546.212 2.19.644.644.425 1.138 1.038 1.495 1.824.358.786.537 1.69.537 2.712v.48zm-2.369-.448c0-1.053-.157-1.855-.48-2.397-.321-.543-.78-.818-1.373-.818-1.167 0-1.782.96-1.847 2.885l-.007.778c0 1.038.158 1.84.473 2.398.315.558.78.84 1.395.84.587 0 1.038-.274 1.36-.825.315-.55.48-1.336.487-2.366v-.495h-.008zm5.898 2.21v3.034c0 .157-.115.283-.258.283h-1.818c-.143 0-.258-.126-.258-.283V10.403c0-.157.115-.283.258-.283h3.6c.737 0 1.388.15 1.96.448.566.299 1.01.723 1.318 1.274.314.55.465 1.179.465 1.878 0 1.038-.337 1.863-1.01 2.476-.672.621-1.595.928-2.776.928H65.38c-.136.008-.25.133-.25.283zm0-2.531c0 .157.114.283.257.283h1.267c.45 0 .794-.126 1.03-.37.237-.244.358-.597.358-1.045 0-.495-.121-.889-.365-1.187-.243-.299-.572-.448-.995-.448H65.38c-.143 0-.258.126-.258.283v2.484h.007zm14.685.769c0 1.038-.172 1.95-.522 2.744-.351.793-.845 1.407-1.49 1.839-.643.432-1.373.644-2.196.644-.823 0-1.553-.204-2.19-.62-.637-.417-1.13-1.007-1.489-1.777-.358-.77-.544-1.659-.558-2.657v-.597c0-1.038.172-1.957.523-2.751.343-.794.844-1.407 1.488-1.84.644-.432 1.381-.644 2.212-.644.815 0 1.545.212 2.19.644.644.425 1.137 1.038 1.495 1.824.358.786.537 1.69.537 2.712v.48zm-2.369-.448c0-1.053-.157-1.855-.48-2.397-.321-.543-.78-.818-1.373-.818-1.167 0-1.782.96-1.847 2.885l-.007.778c0 1.038.157 1.84.472 2.398.315.558.78.84 1.396.84.587 0 1.038-.274 1.36-.825.314-.55.48-1.336.486-2.366v-.495h-.007zm10.327-3.096h-2.39c-.143 0-.258.126-.258.283v8.073c0 .157-.114.283-.257.283h-1.811c-.143 0-.258-.126-.258-.283v-8.08c0-.158-.114-.284-.257-.284h-2.333c-.144 0-.258-.125-.258-.283v-1.415c0-.157.115-.282.258-.282h7.557c.143 0 .258.125.258.283v1.414c0 .165-.115.291-.25.291zm-65.719 20.79h-.695c-.143 0-.257.126-.257.283v3.632c0 .157-.115.283-.258.283h-1.818c-.143 0-.257-.126-.257-.283V26.768c0-.157.114-.283.257-.283h1.818c.143 0 .258.126.258.283v3.537c0 .157.114.283.257.283h.48c.1 0 .186-.063.229-.157l1.717-3.789a.254.254 0 01.23-.157h2.21c.201 0 .323.236.223.425L24.1 31.24a.285.285 0 000 .284l2.691 5.148c.1.189-.028.417-.222.417h-2.16a.244.244 0 01-.223-.15l-1.903-3.898a.26.26 0 00-.23-.15zm13.497-.889c0 1.038-.172 1.95-.522 2.744-.351.793-.845 1.407-1.489 1.839-.644.432-1.374.645-2.197.645s-1.553-.205-2.19-.621c-.637-.417-1.13-1.007-1.489-1.777-.357-.77-.544-1.658-.558-2.657v-.597c0-1.038.172-1.957.523-2.751.343-.794.844-1.407 1.488-1.84.644-.432 1.381-.644 2.212-.644.816 0 1.545.212 2.19.645.644.424 1.138 1.037 1.495 1.823.358.786.537 1.69.537 2.712v.48zm-2.369-.44c0-1.053-.157-1.855-.48-2.397-.321-.543-.78-.818-1.373-.818-1.167 0-1.782.96-1.847 2.885l-.007.778c0 1.038.157 1.84.472 2.398.315.558.78.84 1.396.84.587 0 1.038-.274 1.36-.825.315-.55.48-1.336.486-2.366v-.495h-.007zm3.564 5.244V26.768c0-.157.115-.283.258-.283h3.213c1.245 0 2.19.252 2.834.747.644.503.974 1.226.974 2.177 0 .55-.115 1.014-.344 1.407a2.023 2.023 0 01-1.016.857c.5.15.887.417 1.16.817.271.401.407.88.407 1.454 0 1.038-.3 1.816-.902 2.343-.6.519-1.488.786-2.662.794h-3.664c-.143.008-.258-.118-.258-.275zm2.326-6.178c0 .157.115.282.258.282h.959c.508-.007.873-.11 1.088-.306.214-.197.322-.495.322-.88 0-.448-.115-.77-.351-.967-.236-.197-.615-.299-1.13-.299h-.888c-.143 0-.258.126-.258.283v1.887zm0 2.232v1.98c0 .158.115.283.258.283h1.267c.422 0 .744-.102.966-.314.221-.212.336-.51.336-.888 0-.88-.4-1.328-1.202-1.336H39.33c-.143-.008-.258.118-.258.275zm8.76.912v3.034c0 .157-.115.283-.258.283h-1.818c-.143 0-.257-.126-.257-.283V26.768c0-.157.114-.283.257-.283h3.6c.737 0 1.389.15 1.961.448a3.17 3.17 0 011.317 1.273c.315.55.465 1.18.465 1.88 0 1.037-.336 1.862-1.009 2.475-.673.621-1.596.928-2.777.928h-1.23c-.137 0-.251.125-.251.283zm0-2.531c0 .157.114.282.258.282h1.266c.451 0 .795-.125 1.03-.369.237-.244.359-.597.359-1.045 0-.496-.122-.889-.365-1.187-.244-.299-.573-.448-.995-.448H48.09c-.144 0-.258.125-.258.283v2.484zm14.685.761c0 1.038-.171 1.95-.522 2.744-.35.793-.845 1.407-1.489 1.839-.644.432-1.374.645-2.197.645s-1.553-.205-2.19-.621c-.637-.417-1.13-1.007-1.488-1.777-.358-.77-.544-1.658-.559-2.657v-.597c0-1.038.172-1.957.523-2.751.343-.794.844-1.407 1.489-1.84.644-.432 1.38-.644 2.21-.644.817 0 1.547.212 2.19.645.645.424 1.139 1.037 1.497 1.823.357.786.536 1.69.536 2.712v.48zm-2.369-.44c0-1.053-.157-1.855-.479-2.397-.322-.543-.78-.818-1.374-.818-1.167 0-1.782.96-1.846 2.885l-.008.778c0 1.038.158 1.84.473 2.398.315.558.78.84 1.395.84.587 0 1.038-.274 1.36-.825.315-.55.48-1.336.487-2.366v-.495h-.008zm3.572 5.244V26.768c0-.157.114-.283.257-.283h3.214c1.245 0 2.19.252 2.834.747.644.503.973 1.226.973 2.177 0 .55-.114 1.014-.344 1.407a2.023 2.023 0 01-1.016.857c.501.15.888.417 1.16.817.272.401.408.88.408 1.454 0 1.038-.301 1.816-.902 2.343-.601.519-1.489.786-2.662.794h-3.665c-.15.008-.257-.118-.257-.275zm2.326-6.178c0 .157.114.282.257.282h.96c.507-.007.872-.11 1.087-.306.215-.197.322-.495.322-.88 0-.448-.114-.77-.35-.967-.237-.197-.616-.299-1.131-.299h-.888c-.143 0-.257.126-.257.283v1.887zm0 2.232v1.98c0 .158.114.283.257.283h1.267c.422 0 .744-.102.966-.314.222-.212.337-.51.337-.888 0-.88-.401-1.328-1.203-1.336h-1.374c-.136-.008-.25.118-.25.275zm-53.84 20.31V43.126c0-.157.114-.283.258-.283h3.213c1.245 0 2.19.252 2.834.747.644.503.973 1.226.973 2.177 0 .55-.114 1.014-.343 1.407a2.024 2.024 0 01-1.016.857c.5.15.887.417 1.159.817.272.401.408.88.408 1.455 0 1.037-.3 1.815-.902 2.342-.601.519-1.488.786-2.662.794h-3.664c-.144.008-.258-.118-.258-.267zm2.326-6.185c0 .157.114.283.258.283h.959c.508-.008.873-.11 1.087-.307.215-.196.322-.495.322-.88 0-.448-.114-.77-.35-.967-.236-.197-.616-.299-1.131-.299h-.887c-.144 0-.258.126-.258.283v1.887zm0 2.24v1.98c0 .158.114.284.258.284h1.266c.422 0 .744-.103.966-.315.222-.212.337-.51.337-.888 0-.88-.401-1.328-1.203-1.336h-1.374c-.136-.008-.25.118-.25.275zm12.138.904v3.034c0 .157-.115.283-.258.283h-1.818c-.143 0-.258-.126-.258-.283V43.125c0-.157.115-.283.258-.283h3.6c.737 0 1.388.15 1.96.448a3.18 3.18 0 011.318 1.274c.314.55.465 1.179.465 1.878 0 1.038-.337 1.863-1.01 2.476-.672.621-1.595.928-2.776.928H26.92c-.136.008-.25.133-.25.283zm0-2.531c0 .157.114.283.257.283h1.267c.45 0 .794-.126 1.03-.37.237-.243.358-.597.358-1.045 0-.495-.121-.888-.365-1.187-.243-.299-.572-.448-.994-.448h-1.296c-.143 0-.258.126-.258.283v2.484zm14.685.769c0 1.038-.172 1.95-.522 2.743-.351.794-.845 1.407-1.489 1.84-.644.432-1.374.644-2.197.644s-1.553-.204-2.19-.62c-.637-.417-1.13-1.007-1.489-1.777-.358-.77-.544-1.659-.558-2.657v-.597c0-1.038.172-1.957.523-2.751.343-.794.844-1.407 1.488-1.84.644-.432 1.381-.644 2.212-.644.815 0 1.545.212 2.19.644.644.425 1.137 1.038 1.495 1.824.358.786.537 1.69.537 2.712v.48zm-2.369-.448c0-1.053-.157-1.855-.48-2.397-.321-.543-.78-.818-1.373-.818-1.167 0-1.782.96-1.847 2.885l-.007.778c0 1.038.157 1.84.472 2.398.315.558.78.84 1.396.84.587 0 1.038-.274 1.36-.825.315-.55.48-1.336.486-2.366v-.495h-.007zm11.1 1.941c.15 0 .272.142.25.315a3.977 3.977 0 01-.522 1.643 3.33 3.33 0 01-1.395 1.313c-.601.314-1.281.464-2.054.464-1.267 0-2.269-.456-2.999-1.36-.73-.904-1.095-2.193-1.095-3.844v-.527c0-1.037.165-1.949.494-2.727.33-.778.801-1.383 1.424-1.808.616-.424 1.331-.637 2.147-.637 1.174 0 2.111.338 2.827 1.014.644.613 1.038 1.439 1.18 2.476.022.165-.1.323-.25.323h-1.796a.26.26 0 01-.25-.252c-.043-.51-.186-.896-.43-1.14-.279-.283-.701-.424-1.274-.424-.58 0-1.002.236-1.274.715-.272.48-.408 1.234-.422 2.28v.746c0 1.132.129 1.942.387 2.421.257.488.7.731 1.338.731.537 0 .945-.141 1.224-.416.243-.236.386-.59.436-1.07.015-.14.122-.25.25-.25h1.804v.015zm8.91 0c.15 0 .272.142.25.315a3.975 3.975 0 01-.522 1.643 3.33 3.33 0 01-1.395 1.313c-.601.314-1.281.464-2.054.464-1.267 0-2.269-.456-2.999-1.36-.73-.904-1.095-2.193-1.095-3.844v-.527c0-1.037.165-1.949.494-2.727.33-.778.802-1.383 1.424-1.808.616-.424 1.331-.637 2.147-.637 1.174 0 2.111.338 2.827 1.014.644.613 1.038 1.439 1.18 2.476.022.165-.1.323-.25.323h-1.796a.26.26 0 01-.25-.252c-.043-.51-.187-.896-.43-1.14-.279-.283-.701-.424-1.274-.424-.58 0-1.002.236-1.274.715-.271.48-.407 1.234-.422 2.28v.746c0 1.132.129 1.942.387 2.421.257.488.701.731 1.338.731.537 0 .945-.141 1.224-.416.243-.236.386-.59.436-1.07.015-.14.122-.25.25-.25h1.804v.015zm7.186-7.01h1.925c.143 0 .257.126.257.283v10.045c0 .158-.114.284-.257.284h-1.818c-.143 0-.258-.126-.258-.284v-5.887c0-.141-.172-.196-.236-.07l-3.156 6.083a.25.25 0 01-.222.142h-1.925c-.143 0-.258-.126-.258-.283V43.125c0-.157.115-.283.258-.283h1.818c.143 0 .257.126.257.283v5.888c0 .141.172.196.237.07l3.156-6.091a.267.267 0 01.222-.142zm9.411 0h1.925c.143 0 .257.126.257.283v10.045c0 .158-.114.284-.257.284H75.7c-.143 0-.258-.126-.258-.284v-5.887c0-.141-.171-.196-.236-.07l-3.156 6.083a.25.25 0 01-.222.142h-1.925c-.143 0-.258-.126-.258-.283V43.125c0-.157.115-.283.258-.283h1.818c.143 0 .257.126.257.283v5.888c0 .141.172.196.237.07l3.156-6.091a.25.25 0 01.222-.142z" fill="#1F2030"/><path d="M8.52 59.309c5.847 4.103 13.376 3.789 18.908-.731a.599.599 0 00.093-.81l-.644-.896a.486.486 0 00-.708-.102c-4.838 3.938-11.422 4.205-16.532.621-5.268-3.694-7.75-10.556-6.355-17.112.071-.346.422-.534.715-.385.358.18.766-.133.73-.566l-.322-3.686c-.036-.433-.486-.66-.816-.409L.841 37.379c-.322.251-.279.794.086.974l.193.095c.23.118.351.4.28.668-1.897 7.687.93 15.854 7.12 20.193zM88.288 5.207c5.21 3.796 7.587 10.698 6.09 17.23-.078.345-.429.526-.722.377-.358-.189-.766.118-.737.558l.265 3.694c.028.433.48.668.808.425l2.784-2.099c.33-.244.287-.794-.071-.983l-.194-.102c-.228-.118-.343-.409-.271-.676 2.025-7.648-.68-15.862-6.806-20.319-6.005-4.37-13.977-3.969-19.581.936a.598.598 0 00-.072.81l.673.872a.485.485 0 00.716.079c4.902-4.276 11.873-4.622 17.118-.802z" fill="#1F2030"/></svg>