<svg width="67" height="26" fill="none" xmlns="http://www.w3.org/2000/svg"><path d="M6.03 5.187a.367.367 0 00-.367.369A1.46 1.46 0 014.21 7.018a.367.367 0 00-.367.369v10.311c0 .205.163.364.367.364.798 0 1.453.659 1.453 1.462 0 .204.163.364.366.364h1.438l.73-.733H6.361a2.194 2.194 0 00-1.785-1.796V7.72a2.194 2.194 0 001.785-1.796h14.98l.733-.738H6.029z" fill="#1F2030"/><path d="M10.482 15.119a.362.362 0 00-.362-.364H5.643a.362.362 0 00-.362.364c0 .2.163.364.362.364h4.477c.204.01.362-.16.362-.364zm-.139 1.876l-.729.733H6.912a.367.367 0 010-.733h3.431zm-4.7-4.086h2.524a.362.362 0 00.362-.364c0-.2-.164-.364-.362-.364H5.643a.362.362 0 00-.362.364c-.005.2.163.364.362.364zm0-2.584h4.477a.362.362 0 00.362-.364c0-.2-.163-.364-.362-.364H5.643a.362.362 0 00-.362.364c-.005.2.163.364.362.364zM6.907 8.09h3.833a.365.365 0 000-.728H6.907a.362.362 0 00-.362.364c-.005.2.159.364.362.364z" fill="#1F2030"/><path d="M.362 3.286a.363.363 0 00-.362.37c0 .204.164.363.362.363h1.587v.534h-.913a.367.367 0 000 .734h.913v.528H.362a.363.363 0 00-.362.37c0 .204.164.364.362.364h1.587v.533h-.913a.366.366 0 00-.367.365c0 .2.164.364.367.364h.913v.534H.362A.362.362 0 000 8.709c0 .204.164.364.362.364h1.587v.534h-.913a.366.366 0 00-.367.364c0 .204.164.364.367.364h.913v.534H.362a.362.362 0 00-.362.364c0 .204.164.369.362.369h1.587v.549h-.913a.366.366 0 100 .733h.913v.534H.362a.362.362 0 00-.362.364c0 .205.164.37.362.37h1.587v.533h-.913a.366.366 0 100 .733h.913v.534H.362a.362.362 0 00-.362.364c0 .205.164.37.362.37h1.587v.533h-.913a.366.366 0 100 .733h.913v.534H.362A.362.362 0 000 18.85c0 .205.164.37.362.37h1.587v.533h-.913a.367.367 0 000 .734h.913v.533H.362a.363.363 0 00-.362.37c0 .204.164.364.362.364h5.256l.684-.689h-3.62V4.02h20.553l.73-.733H.361z" fill="#1F2030"/><path d="M26.637.423c0 .11-.04.214-.125.3l-2.548 2.563-.724.734-1.9 1.91-1.417 1.427-.73.733-2.434 2.45-.52.523-3.536 3.557-.51.519-1.845 1.856-.729.733-1.418 1.427-.729.733-1.165 1.172-.684.689-3.194 3.203a.42.42 0 01-.719-.3.43.43 0 01.124-.3l3.278-3.297 1.165-1.172.729-.733 1.418-1.427.73-.733 2.439-2.455.51-.513 3.54-3.557.521-.524 1.884-1.896L25.924.123a.42.42 0 01.595 0 .445.445 0 01.119.3zm2.39 7.937h-2.832l-.282.713h.282c.283 0 .482.055.6.165.12.11.179.249.179.424a.54.54 0 01-.178.419c-.12.11-.318.164-.6.164h-1.572c-.283 0-.481-.055-.6-.164a.548.548 0 01-.179-.424.55.55 0 01.189-.43c.124-.11.332-.16.62-.154l1.83-4.59h-.765c-.282 0-.48-.054-.6-.164a.548.548 0 01-.178-.424c0-.175.06-.32.178-.424.12-.11.318-.165.6-.165l2.52.005 2.32 5.762c.273 0 .451.03.54.09a.583.583 0 01.263.499.54.54 0 01-.178.419c-.12.11-.318.164-.595.164h-1.572c-.283 0-.481-.055-.6-.164a.548.548 0 01-.179-.424c0-.17.06-.315.179-.42.119-.11.317-.164.6-.164h.282l-.272-.713zm-.481-1.173l-.942-2.32-.942 2.325h1.884v-.005zm5.37.683v1.208h1.175c.282 0 .48.055.6.164a.55.55 0 01.178.424c0 .17-.06.315-.178.42-.12.11-.318.164-.6.164h-2.524c-.283 0-.48-.055-.6-.165a.548.548 0 01-.178-.424c0-.17.06-.314.183-.419.119-.11.322-.164.595-.164h.184v-4.59h-.184c-.283 0-.48-.055-.6-.164a.548.548 0 01-.178-.424c0-.175.06-.32.178-.424.12-.11.317-.165.6-.165l2.683.005c.788 0 1.413.215 1.874.649.461.434.69.962.69 1.58 0 .345-.08.67-.234.974-.119.23-.312.454-.59.678-.273.225-.555.39-.843.504-.288.115-.664.17-1.135.17h-1.096zm0-1.172h1.08c.506 0 .913-.114 1.21-.344.298-.23.447-.509.447-.833 0-.274-.12-.514-.362-.723-.243-.205-.585-.31-1.031-.31h-1.344v2.21zm6.47.654v1.72h2.975V8.44c0-.284.055-.484.164-.603.11-.12.248-.18.422-.18a.53.53 0 01.416.18c.11.12.164.319.164.603v1.806h-5.49c-.282 0-.48-.055-.6-.164a.548.548 0 01-.178-.424c0-.17.06-.315.184-.42.119-.11.322-.164.595-.164h.183v-4.59h-.183c-.283 0-.481-.054-.6-.164a.548.548 0 01-.179-.424c0-.175.06-.32.179-.424.119-.11.317-.165.6-.165l5.23.005v1.786c0 .28-.054.479-.158.599a.535.535 0 01-.421.18.535.535 0 01-.422-.18c-.109-.12-.163-.32-.163-.599v-.614h-2.718V6.18h1.022c0-.305.03-.504.084-.59a.562.562 0 01.501-.278c.169 0 .307.06.416.18.11.119.164.318.164.603v1.352c0 .254-.03.429-.09.513a.56.56 0 01-.49.27.562.562 0 01-.5-.28c-.055-.09-.085-.284-.085-.593h-1.022v-.005zm9.461.025h-2.489v1.7h.184c.282 0 .48.056.6.165.118.11.178.25.178.424a.54.54 0 01-.179.42c-.119.11-.317.164-.6.164h-1.428c-.282 0-.48-.055-.6-.165a.548.548 0 01-.178-.424c0-.214.094-.379.278-.498.089-.06.282-.09.58-.085v-4.59c-.203-.02-.357-.08-.461-.19a.547.547 0 01-.159-.398c0-.175.06-.32.178-.424.12-.11.318-.165.6-.165l1.19.005c.283 0 .481.055.6.16.12.104.179.25.179.424s-.06.319-.179.424c-.119.11-.317.164-.6.164h-.183v1.716h2.49V4.488h-.184c-.283 0-.481-.055-.6-.164a.548.548 0 01-.179-.424c0-.175.06-.32.179-.424.119-.11.317-.165.6-.165l1.19.005c.282 0 .48.055.6.16a.54.54 0 01.178.424c0 .16-.054.294-.158.399-.105.105-.258.17-.462.19v4.589c.298 0 .491.03.58.085.184.12.278.284.278.503 0 .17-.06.315-.178.42-.12.11-.318.164-.6.164h-1.428c-.283 0-.481-.055-.6-.165a.548.548 0 01-.179-.424c0-.17.06-.314.184-.419.119-.11.322-.164.595-.164h.183V7.377zm7.77 2.873h-4.14l-.035.594c-.025.364-.075.614-.159.738-.084.125-.223.19-.426.19-.203 0-.352-.065-.437-.195-.084-.13-.129-.384-.129-.763V9.073c.134.005.234.005.303.005a1.35 1.35 0 001.021-.459c.283-.31.422-.903.422-1.78v-2.35c-.07.004-.139.004-.208.004-.54 0-.809-.2-.809-.593 0-.215.065-.364.199-.454.129-.09.391-.13.783-.13h3.863c.377 0 .63.045.768.13.14.09.204.24.204.454 0 .394-.283.588-.853.588v4.59c.297 0 .5.035.605.105.104.07.173.154.203.254.03.1.045.304.045.619v.763c0 .37-.045.623-.13.753-.084.135-.232.2-.44.2-.194 0-.333-.06-.417-.18-.084-.12-.144-.359-.179-.723l-.054-.619zm-2.41-5.762v2.35c0 .918-.154 1.656-.461 2.21l2.073.03v-4.59h-1.612zm9.218 3.872h-2.831l-.283.713h.282c.283 0 .481.055.6.165.12.11.179.249.179.424 0 .17-.06.314-.179.419-.119.11-.317.164-.6.164h-1.571c-.283 0-.481-.055-.6-.164a.548.548 0 01-.179-.424.55.55 0 01.189-.43c.123-.11.332-.16.62-.154l1.829-4.59h-.764c-.282 0-.48-.054-.6-.164a.548.548 0 01-.178-.424c0-.175.06-.32.178-.424.12-.11.318-.165.6-.165l2.52.005 2.32 5.762c.273 0 .451.03.54.09a.583.583 0 01.263.499.54.54 0 01-.178.419c-.12.11-.318.164-.595.164h-1.572c-.283 0-.481-.055-.6-.164a.548.548 0 01-.179-.424c0-.17.06-.315.179-.42.119-.11.317-.164.6-.164h.282l-.272-.713zm-.481-1.173l-.937-2.324-.942 2.324h1.879zM19.1 15.972c-.04.01-.258.324-.655.943-.282.439-.476.723-.57.858l-.07.14c.373.309.695.733.963 1.271l.689 1.357h.218c.377 0 .635.045.769.13.134.09.203.24.203.454 0 .215-.065.364-.198.454-.134.09-.392.135-.774.135h-.129c-.401 0-.64-.03-.719-.09-.074-.06-.198-.25-.362-.574l-.69-1.352c-.376-.728-.773-1.092-1.194-1.092h-.327v1.935c.054-.005.104-.005.158-.005.536 0 .804.195.804.59 0 .214-.065.363-.199.453-.129.09-.386.135-.763.135h-1.166c-.376 0-.63-.045-.763-.13-.134-.09-.203-.24-.203-.454 0-.214.069-.364.203-.454.134-.09.392-.135.764-.135v-4.589c-.055.005-.105.005-.16.005-.54 0-.807-.2-.807-.594 0-.214.064-.364.198-.454.134-.09.387-.13.768-.13h1.166c.377 0 .63.046.763.13.134.09.199.24.199.454 0 .215-.065.364-.199.454-.134.09-.386.135-.763.135v1.477h.158a.566.566 0 00.318-.08c.084-.055.203-.2.357-.434l.843-1.287c.178-.27.377-.48.605-.629.223-.15.54-.224.942-.224.253 0 .436.04.54.114a.477.477 0 01.198.265c.025.1.04.3.04.608v.115c0 .37-.04.619-.124.753-.084.13-.228.2-.436.2-.387-.01-.585-.294-.595-.858zm8.31 2.27c0 1.042-.327 1.91-.986 2.599-.66.693-1.419 1.037-2.286 1.037-.779 0-1.478-.289-2.103-.863-.773-.713-1.16-1.636-1.16-2.773 0-1.138.387-2.066 1.16-2.779.625-.574 1.33-.863 2.103-.863.862 0 1.626.344 2.285 1.038.655.693.987 1.561.987 2.604zm-1.165 0c0-.714-.213-1.302-.645-1.771-.426-.47-.917-.704-1.462-.704-.54 0-1.027.235-1.458.704-.427.469-.645 1.057-.645 1.766 0 .708.213 1.297.645 1.766.426.469.912.698 1.458.698.545 0 1.031-.234 1.462-.698.427-.454.645-1.048.645-1.761zm2.499 2.295v-4.59h-.183c-.283 0-.481-.055-.6-.164a.549.549 0 01-.179-.425c0-.174.06-.319.179-.424.119-.11.317-.164.6-.164h2.925c.7 0 1.26.194 1.686.588.427.39.635.854.635 1.392a1.8 1.8 0 01-.149.724c-.1.224-.248.434-.451.623.367.22.644.479.828.773.183.295.278.629.278 1.003 0 .3-.065.574-.199.828-.099.195-.218.35-.362.464-.193.16-.431.29-.709.394-.282.1-.63.15-1.051.15H28.57c-.283 0-.481-.055-.6-.165a.548.548 0 01-.179-.424c0-.17.06-.31.184-.419.119-.11.322-.165.595-.165h.173zm1.165-2.884h1.28c.456 0 .838-.115 1.145-.349.203-.155.307-.35.307-.584 0-.204-.094-.384-.287-.538-.194-.155-.5-.23-.922-.23h-1.518v1.701h-.005zm0 2.884h2.014c.476 0 .808-.07 1.001-.21a.528.528 0 00.223-.459c0-.234-.143-.469-.436-.698-.293-.23-.71-.345-1.255-.345h-1.542v1.712h-.005zm7.532-1.207v1.207h1.175c.283 0 .481.054.6.164.12.11.179.25.179.424 0 .17-.06.314-.179.42-.119.109-.317.164-.6.164h-2.524c-.282 0-.48-.055-.6-.165a.548.548 0 01-.178-.424c0-.17.06-.31.183-.419.12-.11.323-.165.595-.165h.184v-4.589h-.184c-.282 0-.48-.055-.6-.164a.549.549 0 01-.178-.425c0-.174.06-.319.178-.424.12-.11.318-.164.6-.164l2.683.005c.788 0 1.413.214 1.874.648.461.434.69.963.69 1.582 0 .344-.08.668-.234.972-.119.23-.312.454-.59.679a3.176 3.176 0 01-.843.504c-.287.114-.664.17-1.135.17H37.44zm0-1.173h1.081c.506 0 .912-.115 1.21-.344.297-.23.446-.509.446-.833 0-.275-.119-.514-.362-.724-.243-.204-.585-.309-1.031-.309H37.44v2.21zm10.939.085c0 1.042-.328 1.91-.987 2.599-.66.693-1.418 1.037-2.286 1.037-.779 0-1.478-.289-2.102-.863-.774-.713-1.16-1.636-1.16-2.773 0-1.138.386-2.066 1.16-2.779.624-.574 1.328-.863 2.102-.863.863 0 1.626.344 2.286 1.038.654.693.986 1.561.986 2.604zm-1.166 0c0-.714-.213-1.302-.644-1.771-.427-.47-.918-.704-1.463-.704-.54 0-1.026.235-1.458.704-.426.469-.645 1.057-.645 1.766 0 .708.214 1.297.645 1.766.426.469.913.698 1.458.698.545 0 1.031-.234 1.463-.698.426-.454.644-1.048.644-1.761zm2.499 2.295v-4.59h-.178c-.283 0-.481-.055-.6-.164a.549.549 0 01-.179-.425c0-.174.06-.319.179-.424.119-.11.317-.164.6-.164h2.925c.7 0 1.26.194 1.686.588.427.39.635.854.635 1.392 0 .255-.05.494-.149.724a1.9 1.9 0 01-.451.623c.367.22.645.479.828.773.183.295.278.629.278 1.003 0 .3-.065.574-.199.828-.099.195-.218.35-.362.464-.193.16-.431.29-.709.394-.282.1-.63.15-1.05.15h-3.422c-.283 0-.481-.055-.6-.165a.548.548 0 01-.179-.424c0-.17.06-.31.184-.419.119-.11.322-.165.595-.165h.168zm1.166-2.884h1.279c.461 0 .838-.115 1.145-.349.204-.155.308-.35.308-.584 0-.204-.094-.384-.293-.538-.193-.155-.5-.23-.922-.23h-1.517v1.701zm0 2.884h2.013c.476 0 .808-.07 1.001-.21a.528.528 0 00.223-.459c0-.234-.143-.469-.436-.698-.292-.23-.709-.345-1.254-.345h-1.543v1.712h-.004z" fill="#1F2030"/></svg>