<svg width="14" height="14" fill="none" xmlns="http://www.w3.org/2000/svg"><g clip-path="url(#clip0)" fill="#4169E1"><path d="M11.061 13.999c-.896-.035-1.673-.247-2.424-.556-1.256-.515-2.371-1.258-3.404-2.127-1.325-1.114-2.513-2.359-3.492-3.792C1.031 6.49.448 5.391.167 4.157c-.089-.394-.124-.8-.161-1.204a.967.967 0 01.298-.79C.988 1.473 1.679.786 2.369.099c.153-.15.292-.134.402.054a998.78 998.78 0 011.78 3.023c.116.196.087.408-.077.577-.27.277-.547.553-.823.827-.26.257-.352.555-.244.914.147.494.389.942.684 1.358a12.506 12.506 0 003.223 3.163c.384.258.792.465 1.242.588.327.088.598-.003.834-.228.234-.226.461-.459.692-.69.193-.19.408-.225.646-.099 1.017.54 2.034 1.079 3.05 1.62.257.137.276.255.072.46-.649.651-1.3 1.3-1.947 1.953-.255.26-.552.402-.842.38zM6.59 1.205V.2c1.77.06 3.296.717 4.629 1.849C13.236 3.759 14.01 6.018 14 7.655h-.314c-.18 0-.357-.008-.536.002-.11.006-.134-.04-.142-.137a6.4 6.4 0 00-.837-2.785C11.069 2.822 9.424 1.67 7.244 1.29c-.215-.037-.432-.056-.654-.085z"/><path d="M6.582 2.543c2.789.156 5.012 2.557 5.1 5.098h-.986c-.04-.22-.073-.44-.124-.654a4.513 4.513 0 00-3.835-3.424c-.129-.016-.158-.059-.155-.182.005-.274 0-.55 0-.838zM9.35 7.65c-.266 0-.518.005-.77-.006-.035 0-.08-.07-.097-.113a2.592 2.592 0 00-1.36-1.607c-.142-.072-.297-.115-.445-.177-.035-.013-.088-.048-.088-.075-.006-.263-.003-.523-.003-.786 1.303.091 2.62 1.263 2.762 2.763z"/></g><defs><clipPath id="clip0"><path fill="#fff" d="M0 0h14v14H0z"/></clipPath></defs></svg>